<?xml version="1.0" encoding="utf-8"?>
<!-- Generator: Adobe Illustrator 24.1.2, SVG Export Plug-In . SVG Version: 6.00 Build 0)  -->
<svg version="1.1" id="Layer_1" xmlns="http://www.w3.org/2000/svg" xmlns:xlink="http://www.w3.org/1999/xlink" x="0px" y="0px"
	 viewBox="0 0 1000 1000" style="enable-background:new 0 0 1000 1000;" xml:space="preserve">
<style type="text/css">
	.st0{fill:#CDCDCD;}
	.st1{fill:#FFFFFF;}
	.st2{fill:#E96F44;}
</style>
<g>
	<path class="st0" d="M432,230c36.06,0,69.96,14.04,95.46,39.54c25.5,25.5,39.54,59.4,39.54,95.46s-14.04,69.96-39.54,95.46
		C501.96,485.96,468.06,500,432,500s-69.96-14.04-95.46-39.54C311.04,434.96,297,401.06,297,365s14.04-69.96,39.54-95.46
		C362.04,244.04,395.94,230,432,230 M432,180c-102.17,0-185,82.83-185,185s82.83,185,185,185s185-82.83,185-185S534.17,180,432,180
		L432,180z"/>
</g>
<g>
	<rect x="406" y="170" class="st1" width="52.57" height="389"/>
</g>
<g>
	<rect x="237.43" y="338.32" class="st1" width="389" height="52.57"/>
</g>
<g>
	<path class="st2" d="M432,547.5c-9.65,0-17.5-7.85-17.5-17.5V382.5h-182V525c0,12.41-10.09,22.5-22.5,22.5s-22.5-10.09-22.5-22.5
		V205c0-12.41,10.09-22.5,22.5-22.5s22.5,10.09,22.5,22.5v142.5H432c3.9,0,7.6,1.27,10.7,3.68l0.1,0.08l0.11,0.07
		c1.17,0.73,2.22,1.56,3.13,2.47l163.44,163.44c3.3,3.31,5.13,7.7,5.13,12.38c0,4.67-1.82,9.07-5.13,12.37
		c-3.31,3.3-7.7,5.13-12.37,5.13c-4.67,0-9.07-1.82-12.38-5.13L449.5,406.75V530C449.5,539.65,441.65,547.5,432,547.5z"/>
	<path d="M210,185c11.03,0,20,8.97,20,20v140v5h5h197c3.34,0,6.51,1.09,9.17,3.15l0.2,0.16l0.22,0.13c1.01,0.63,1.91,1.34,2.68,2.11
		L607.71,519c2.83,2.83,4.39,6.6,4.39,10.61s-1.56,7.77-4.39,10.61c-2.83,2.83-6.6,4.39-10.61,4.39s-7.77-1.56-10.61-4.39
		L455.54,409.25l-8.54-8.54v12.07V424v106c0,8.27-6.73,15-15,15s-15-6.73-15-15V424v-39v-5h-5H235h-5v5v140c0,11.03-8.97,20-20,20
		c-11.03,0-20-8.97-20-20V205C190,193.97,198.97,185,210,185 M210,180c-13.81,0-25,11.19-25,25v320c0,13.81,11.19,25,25,25
		c13.81,0,25-11.19,25-25V385h177v39v106c0,11.05,8.95,20,20,20c11.05,0,20-8.95,20-20V424v-11.22l130.97,130.97
		c3.91,3.91,9.02,5.86,14.14,5.86c5.12,0,10.24-1.95,14.14-5.86c7.81-7.81,7.81-20.47,0-28.28L447.81,352.02
		c-1.1-1.1-2.31-2.03-3.57-2.82c-3.38-2.62-7.62-4.2-12.23-4.2H235V205C235,191.19,223.81,180,210,180L210,180z"/>
</g>
</svg>
